<?xml version="1.0" ?><svg style="enable-background:new 0 0 512 512;" version="1.1" viewBox="0 0 512 512" xml:space="preserve" xmlns="http://www.w3.org/2000/svg" xmlns:xlink="http://www.w3.org/1999/xlink"><style type="text/css">
	.st0{fill:#C8C6CC;}
	.st1{fill:#78CBED;}
	.st2{fill:#34B6E2;}
	.st3{fill:#FFFFFF;}
	.st4{fill:#F6D6C5;}
	.st5{fill:#C76D33;}
	.st6{fill:#DF8A57;}
	.st7{fill:#FFD6BC;}
	.st8{fill:#F85647;}
	.st9{fill:#FFB88C;}
	.st10{fill:#FF97C1;}
	.st11{fill:#00C755;}
	.st12{fill:#55D47B;}
	.st13{fill:#FF9A5C;}
	.st14{fill:#F54432;}
	.st15{fill:#948EA3;}
	.st16{fill:#FD7A6E;}
	.st17{fill:#77728D;}
	.st18{fill:none;}
	.st19{fill:#FF7E27;}
	.st20{fill:#EAAA83;}
	.st21{fill:#E83826;}
</style><g id="Layer_1"/><g id="Layer_2"/><g id="Layer_3"><g><g><path class="st4" d="M382.833,168.785l-49.344,17.279l-10.683-31.855l49.344-17.279c-3.145-11.093,2.592-22.813,13.219-26.534     c10.959-3.838,22.939,2.285,26.759,13.675c1.968,5.868,1.37,11.981-1.155,17.062c5.045,2.43,9.186,6.883,11.154,12.752     c3.82,11.39-1.967,23.734-12.926,27.572C398.573,185.178,387.008,179.517,382.833,168.785z"/><path class="st6" d="M149.08,148.68c48.425-16.232,96.239-10.753,121.653,11l48.462-16.244l17.276,51.541l-48.462,16.244     c-7.17,32.675-42.022,65.864-90.447,82.096c-62.671,21.007-124.329,5.659-137.717-34.282     c-11.27-33.621,15.256-73.949,61.312-98.4C121.761,160.315,142.425,150.91,149.08,148.68z"/></g><g><path class="st4" d="M438.197,198.603l-36.605,14.686l-9.125-23.647l36.605-14.686c-2.744-8.254,1.184-17.28,9.068-20.443     c8.13-3.262,17.365,0.949,20.628,9.404c1.681,4.356,1.436,8.983-0.296,12.898c3.884,1.661,7.155,4.878,8.836,9.234     c3.263,8.455-0.683,17.954-8.812,21.215C450.612,210.427,441.706,206.55,438.197,198.603z"/><path class="st5" d="M261.353,191.331c35.948-13.866,72.167-11.348,92.054,4.189l35.975-13.876l14.758,38.261l-35.976,13.876     c-4.302,24.867-29.45,51.055-65.398,64.92c-46.523,17.945-93.509,8.456-104.945-21.194     C186.385,247.858,214.829,209.275,261.353,191.331z"/></g><path class="st2" d="M468.391,343.069H43.609c0,0,14.089,39.472,18.786,52.629c1.509,4.229,5.506,7.051,9.986,7.051    c91.81,0,275.429,0,367.239,0c4.48,0,8.477-2.822,9.986-7.051C454.302,382.541,468.391,343.069,468.391,343.069z"/><path class="st1" d="M481.905,297.88H30.095c-12.479,0-22.595,10.116-22.595,22.595v0c0,12.479,10.116,22.595,22.595,22.595    h451.811c12.479,0,22.595-10.116,22.595-22.595v0C504.5,307.996,494.384,297.88,481.905,297.88z"/><ellipse cx="133.638" cy="205.113" rx="10.204" ry="10.098"/><ellipse cx="113.23" cy="241.321" rx="10.204" ry="10.098"/><ellipse cx="154.046" cy="241.321" rx="10.204" ry="10.098"/><ellipse cx="266.314" cy="242.242" rx="10.204" ry="10.098"/></g></g><g id="Layer_4"/><g id="Layer_5"/><g id="Layer_6"/><g id="Layer_7"/><g id="Layer_8"/><g id="Layer_9"/><g id="Layer_10"/><g id="Layer_11"/><g id="Layer_12"/><g id="Layer_13"/><g id="Layer_14"/><g id="Layer_15"/><g id="Layer_16"/><g id="Layer_17"/><g id="Layer_18"/><g id="Layer_19"/><g id="Layer_20"/><g id="Layer_21"/><g id="Layer_22"/><g id="Layer_23"/><g id="Layer_24"/><g id="Layer_25"/><g id="Layer_26"/><g id="Layer_27"/><g id="Layer_28"/><g id="Layer_29"/><g id="Layer_30"/><g id="Layer_31"/><g id="Layer_32"/><g id="Layer_33"/><g id="Layer_34"/><g id="Layer_35"/><g id="Layer_36"/><g id="Layer_37"/><g id="Layer_38"/><g id="Layer_39"/><g id="Layer_40"/><g id="Layer_41"/><g id="Layer_42"/><g id="Layer_43"/><g id="Layer_44"/><g id="Layer_45"/><g id="Layer_46"/><g id="Layer_47"/><g id="Layer_48"/><g id="Layer_49"/><g id="Layer_50"><g><path d="M481.905,290.38H334.808c20.546-14.014,35.081-32.323,39.833-51.061l32.196-12.411c3.769-1.453,5.685-5.616,4.396-9.406    l24.055-9.651c6.387,7.299,16.686,10.109,26.001,6.374c11.904-4.776,17.743-18.627,13.017-30.875    c-1.524-3.953-3.977-7.344-7.126-9.935c0.579-4.069,0.11-8.247-1.414-12.197c-2.344-6.074-6.87-10.828-12.744-13.384    c-5.684-2.474-11.959-2.573-17.674-0.28c-2.304,0.924-4.38,2.188-6.199,3.712c-1.816-5.273-4.967-9.804-9.135-13.209    c1.273-5.363,1.026-10.997-0.775-16.37c-2.535-7.559-7.807-13.618-14.842-17.062c-6.788-3.322-14.428-3.786-21.506-1.306    c-12.066,4.225-19.565,16.015-19.082,28.587l-36.312,12.716l-1.195-3.564c-1.317-3.927-5.567-6.042-9.494-4.727l-44.576,14.938    c-25.208-19.06-66.368-24.64-108.828-14.49c-0.624,0.149-1.25,0.302-1.875,0.458c-4.019,1.004-6.463,5.075-5.459,9.094    c1.003,4.018,5.077,6.463,9.094,5.458c0.579-0.145,1.158-0.286,1.731-0.423c39.821-9.517,77.74-4.148,98.958,14.013    c2.003,1.715,4.759,2.251,7.26,1.414l41.35-13.857l7.625,22.742c-19.597-2.588-42.01,0.394-63.438,8.657    c-23.814,9.188-43.998,23.838-56.833,41.249c-13.572,18.411-17.477,37.811-10.993,54.63c0.856,2.217,1.891,4.354,3.085,6.406    c-4.365,1.425-8.787,2.689-13.183,3.762h-73.623c-20.708-6.296-34.954-18.236-40.14-33.723    c-4.941-14.743-1.353-32.096,10.104-48.865c11.917-17.442,31.456-33.152,55.019-44.236c3.748-1.763,5.357-6.231,3.594-9.979    s-6.231-5.358-9.979-3.594c-55.213,25.975-85.897,72.842-72.96,111.44c3.801,11.349,11.059,21.16,21.195,28.958H30.095    C13.5,290.38,0,303.88,0,320.475s13.5,30.095,30.095,30.095h8.228l17.009,47.65c2.568,7.195,9.419,12.03,17.049,12.03H339    c4.143,0,7.5-3.358,7.5-7.5s-3.357-7.5-7.5-7.5H72.38c-1.306,0-2.48-0.833-2.922-2.072L54.25,350.569h403.501l-15.209,42.607    c-0.442,1.239-1.617,2.072-2.923,2.072H374c-4.143,0-7.5,3.358-7.5,7.5s3.357,7.5,7.5,7.5h65.619    c7.629,0,14.481-4.834,17.05-12.03l17.009-47.65h8.227c16.595,0,30.095-13.5,30.095-30.095S498.5,290.38,481.905,290.38z     M436.189,172.59c-1.516-4.558,0.568-9.441,4.744-11.116c1.961-0.786,4.126-0.747,6.103,0.113c2.165,0.942,3.848,2.729,4.735,5.03    c0.904,2.346,0.849,4.889-0.157,7.162c-0.812,1.834-0.854,3.916-0.121,5.782c0.734,1.866,2.186,3.36,4.029,4.149    c2.197,0.94,3.898,2.729,4.789,5.039c1.788,4.634-0.279,9.817-4.607,11.554c-4.074,1.635-8.752-0.441-10.646-4.729    c-1.632-3.698-5.896-5.439-9.654-3.932l-29.552,11.856l-3.724-9.651l29.736-11.93C435.546,180.44,437.44,176.354,436.189,172.59z     M374.628,144.009c3.743-1.311,5.818-5.309,4.737-9.124c-2.088-7.366,1.638-15.013,8.482-17.41    c3.266-1.143,6.801-0.922,9.954,0.622c3.403,1.666,5.966,4.634,7.215,8.358c1.267,3.777,0.997,7.805-0.76,11.34    c-0.893,1.795-1.029,3.874-0.379,5.77c0.65,1.897,2.033,3.454,3.84,4.325c3.451,1.663,6.043,4.639,7.298,8.379    c2.516,7.502-1.205,15.626-8.294,18.109c-6.745,2.362-14.168-1.291-16.898-8.312c-1.466-3.769-5.659-5.694-9.469-4.36    l-42.172,14.768l-5.913-17.632L374.628,144.009z M365.929,182.65l-11.438,4.414c-0.136-0.09-0.278-0.174-0.415-0.263    L365.929,182.65z M213.891,234.482c11.162-15.141,28.976-27.981,50.157-36.155c22.755-8.775,46.447-10.902,65.392-5.956    c0.242,0.155,0.491,0.301,0.752,0.429c1.036,0.507,2.165,0.764,3.297,0.764c0.01,0,0.02-0.003,0.031-0.003    c5.917,1.94,11.057,4.579,15.278,7.872c2.077,1.621,4.853,2.033,7.313,1.084l28.975-11.181l0.367,0.953    c0.007,0.017,0.01,0.035,0.017,0.052l4.582,11.874l4.394,11.393l-28.982,11.173c-2.462,0.949-4.243,3.121-4.693,5.719    c-3.809,22.019-26.816,45.145-57.431,57.879h-85.54c-2.391-1.6-4.538-3.367-6.382-5.297c-0.014-0.015-0.027-0.03-0.042-0.045    c-2.902-3.034-5.11-6.476-6.558-10.226C200.244,262.947,203.466,248.624,213.891,234.482z M481.905,335.569h-13.514H43.609H30.095    c-8.323,0-15.095-6.771-15.095-15.095s6.771-15.095,15.095-15.095h75.831c0.009,0,0.019,0.002,0.028,0.002    c0.008,0,0.016-0.002,0.024-0.002h75.643c0.008,0,0.015,0.002,0.023,0.002c0.011,0,0.022-0.002,0.033-0.002h123.14    c0.009,0,0.018,0.002,0.026,0.002c0.014,0,0.028-0.002,0.041-0.002h177.021c8.323,0,15.095,6.771,15.095,15.095    S490.229,335.569,481.905,335.569z"/><ellipse cx="133.638" cy="205.113" rx="10.204" ry="10.098"/><ellipse cx="113.23" cy="241.321" rx="10.204" ry="10.098"/><ellipse cx="154.046" cy="241.321" rx="10.204" ry="10.098"/><path d="M266.314,252.34c5.635,0,10.204-4.521,10.204-10.098s-4.568-10.098-10.204-10.098s-10.204,4.521-10.204,10.098    S260.679,252.34,266.314,252.34z"/></g></g></svg>